<?xml version="1.0" encoding="UTF-8" standalone="no"?>
<!-- Generator: Adobe Illustrator 20.0.0, SVG Export Plug-In . SVG Version: 6.00 Build 0)  -->

<svg
   xmlns:dc="http://purl.org/dc/elements/1.1/"
   xmlns:cc="http://creativecommons.org/ns#"
   xmlns:rdf="http://www.w3.org/1999/02/22-rdf-syntax-ns#"
   xmlns:svg="http://www.w3.org/2000/svg"
   xmlns="http://www.w3.org/2000/svg"
   xmlns:sodipodi="http://sodipodi.sourceforge.net/DTD/sodipodi-0.dtd"
   xmlns:inkscape="http://www.inkscape.org/namespaces/inkscape"
   version="1.1"
   id="レイヤー_1"
   x="0px"
   y="0px"
   viewBox="0 0 468.6 77.8"
   style="enable-background:new 0 0 468.6 77.8;"
   xml:space="preserve"
   sodipodi:docname="logo.svg"
   inkscape:version="0.92.3 (2405546, 2018-03-11)"><metadata
   id="metadata49"><rdf:RDF><cc:Work
       rdf:about=""><dc:format>image/svg+xml</dc:format><dc:type
         rdf:resource="http://purl.org/dc/dcmitype/StillImage" /></cc:Work></rdf:RDF></metadata><defs
   id="defs47" /><sodipodi:namedview
   pagecolor="#ffffff"
   bordercolor="#666666"
   borderopacity="1"
   objecttolerance="10"
   gridtolerance="10"
   guidetolerance="10"
   inkscape:pageopacity="0"
   inkscape:pageshadow="2"
   inkscape:window-width="931"
   inkscape:window-height="480"
   id="namedview45"
   showgrid="false"
   inkscape:zoom="1.6154503"
   inkscape:cx="127.82814"
   inkscape:cy="38.900002"
   inkscape:window-x="67"
   inkscape:window-y="27"
   inkscape:window-maximized="0"
   inkscape:current-layer="レイヤー_1" />
<style
   type="text/css"
   id="style2">
	.st0{fill:#FFFFFF;}
</style>
<g
   id="g42"
   style="fill:#000000">
	<polygon
   class="st0"
   points="89.2,18.1 102,18.1 102,24.3 106.1,24.3 106.1,10 102,10 102,15.5 89.2,15.5 89.2,10 85.1,10    85.1,24.3 89.2,24.3  "
   id="polygon4"
   style="fill:#000000" />
	<path
   class="st0"
   d="M151.1,10h-4l-10,14.3h4.1l2-3.1h11.2l2.1,3.1h4.6L151.1,10z M145,18.6l3.9-5.8l3.8,5.8H145z"
   id="path6"
   style="fill:#000000" />
	<path
   class="st0"
   d="M194.7,18.9h3.9l7.1,5.4h5.9l-8.1-5.4h2.3c2.7,0,4-0.8,4-2.8v-3.4c0-2-1.3-2.8-4-2.8h-15.1v14.3h4V18.9z    M194.7,12.4h9.2c1.3,0,1.8,0.2,1.8,1.1v1.7c0,0.9-0.6,1.1-1.8,1.1h-9.2V12.4z"
   id="path8"
   style="fill:#000000" />
	<path
   class="st0"
   d="M259.4,23.2c2.5-1.2,3.9-3.4,3.9-6.1c0-4.4-3.5-7.1-10.1-7.1h-11.3v14.3h10.3   C255.3,24.3,257.7,24.1,259.4,23.2z M246,21.6v-9.1h7.3c3.9,0,5.8,1.6,5.8,4.5c0,3.6-2.6,4.6-7.8,4.6H246z"
   id="path10"
   style="fill:#000000" />
	<path
   class="st0"
   d="M313.6,20.9v-1.7l-4.1-0.7v3.1h-11.1v-9.1h11.1v2.7l4.1-0.5v-1.4c0-2.7-1.1-3.4-4.4-3.4h-10.5   c-3.3,0-4.4,0.7-4.4,3.4v7.6c0,2.7,1.1,3.4,4.4,3.4h10.5C312.5,24.3,313.6,23.6,313.6,20.9z"
   id="path12"
   style="fill:#000000" />
	<path
   class="st0"
   d="M349.9,24.3h13c3.3,0,4.4-0.7,4.4-3.4v-7.6c0-2.7-1.1-3.4-4.4-3.4h-13c-3.3,0-4.4,0.7-4.4,3.4v7.6   C345.5,23.6,346.6,24.3,349.9,24.3z M349.6,12.5h13.5v9.1h-13.5V12.5z"
   id="path14"
   style="fill:#000000" />
	<path
   class="st0"
   d="M403.8,18.9h3.9l7.1,5.4h5.9l-8.1-5.4h2.3c2.7,0,4-0.8,4-2.8v-3.4c0-2-1.3-2.8-4-2.8h-15.1v14.3h4V18.9z    M403.8,12.4h9.2c1.3,0,1.8,0.2,1.8,1.1v1.7c0,0.9-0.6,1.1-1.8,1.1h-9.2V12.4z"
   id="path16"
   style="fill:#000000" />
	<polygon
   class="st0"
   points="454.5,21.6 454.5,18.1 462.6,18.1 462.6,15.6 454.5,15.6 454.5,12.4 468.4,12.4 468.4,10 450.4,10    450.4,24.3 468.6,24.3 468.6,21.6  "
   id="polygon18"
   style="fill:#000000" />
	<polygon
   class="st0"
   points="288.8,62.9 280.9,62.9 246,35.9 228.6,35.9 228.6,69.5 235.2,69.5 235.2,42.5 243.7,42.5 278.7,69.5    295.4,69.6 295.4,35.9 288.8,35.9  "
   id="polygon20"
   style="fill:#000000" />
	<path
   class="st0"
   d="M365.2,35.9h-64.8v33.6h66.8v-3.3V44.5c-1.3-2.3-2-5-2-7.8C365.2,36.5,365.2,36.2,365.2,35.9z M360.7,63H307   V42.5h53.7V63z"
   id="path22"
   style="fill:#000000" />
	<polygon
   class="st0"
   points="158.1,35.9 158.1,69.5 164.7,69.5 164.7,59.1 191.3,59.1 181.5,52.5 164.7,52.5 164.7,42.5    173.4,42.5 213.2,69.5 224.9,69.5 175.4,35.9  "
   id="polygon24"
   style="fill:#000000" />
	<rect
   x="310.8"
   y="47.2"
   class="st0"
   width="45.6"
   height="10.8"
   id="rect26"
   style="fill:#000000" />
	<polygon
   class="st0"
   points="97.7,31.7 85.7,31.7 93.5,42.5 93.8,42.5 93.8,42.5 126.6,42.5 126.6,69.5 133.1,69.5 133.1,42.5    154.1,42.5 154.1,35.9 100.8,35.9  "
   id="polygon28"
   style="fill:#000000" />
	<path
   class="st0"
   d="M452.4,35.9h-55.2c0,0.3,0,0.5,0,0.8c0,3.5-1.1,6.7-3,9.3v23.5h37.3V63h-30.7V42.5h57v0h1.9l7.7-10.7h-12   L452.4,35.9z"
   id="path30"
   style="fill:#000000" />
	<path
   class="st0"
   d="M75.6,36.7c-0.6,0-1.1,0.2-1.5,0.6c-0.4,0.4-0.6,0.9-0.6,1.5h0c0,9.5-3.9,18.2-10.1,24.4   c-6.3,6.3-14.9,10.1-24.4,10.1c-9.5,0-18.2-3.9-24.4-10.1C8.2,57.1,4.4,48.5,4.4,38.9c0-9.5,3.9-18.2,10.1-24.4   C20.7,8.2,29.4,4.4,38.9,4.4c0.6,0,1.1-0.2,1.5-0.6c0.4-0.4,0.6-0.9,0.6-1.5c0-1.2-1-2.2-2.2-2.2C17.4,0,0,17.4,0,38.9   c0,21.5,17.4,38.9,38.9,38.9c21.5,0,38.9-17.4,38.9-38.9C77.8,37.7,76.8,36.7,75.6,36.7z"
   id="path32"
   style="fill:#000000" />
	<path
   class="st0"
   d="M57.1,31.4c2.9,0,5.3-2.4,5.3-5.3c0-0.2,0-0.3-0.1-0.5c-0.2-2.5-2.2-4.5-4.7-4.7c-0.2,0-0.3-0.1-0.5-0.1   c-2.9,0-5.3,2.4-5.3,5.3C51.8,29,54.2,31.4,57.1,31.4z M55.9,21.9c1.3,0,2.4,1.1,2.4,2.4c0,1.4-1.1,2.4-2.4,2.4   c-1.3,0-2.5-1.1-2.5-2.4C53.5,23,54.6,21.9,55.9,21.9z"
   id="path34"
   style="fill:#000000" />
	<path
   class="st0"
   d="M30.5,27.1l-1.9,34.2l3.1,0.1c0,0,0-0.8,0.2-2.7h14c0.1,2,0.2,2.7,0.2,2.7l3.1-0.1l-1.9-34.2   c0-0.6-0.6-1.2-1.2-1.2H31.7C31,26,30.5,26.5,30.5,27.1z M32.9,27.9c1.8,0,10.3,0,12.1,0c0.1,1.6,0.4,19.2,0.9,28.3H32   C32.4,47.1,32.8,29.5,32.9,27.9z"
   id="path36"
   style="fill:#000000" />
	<path
   class="st0"
   d="M15.4,26.1c0,2.9,2.4,5.3,5.3,5.3c2.9,0,5.3-2.4,5.3-5.3c0-2.9-2.4-5.3-5.3-5.3C17.8,20.8,15.4,23.2,15.4,26.1   z M22,24.3c0,1.4-1.1,2.4-2.4,2.4c-1.4,0-2.5-1.1-2.5-2.4c0-1.3,1.1-2.4,2.5-2.4C20.9,21.9,22,23,22,24.3z"
   id="path38"
   style="fill:#000000" />
	<path
   class="st0"
   d="M381.2,24.5c-6.8,0-12.2,5.5-12.2,12.2c0,6.8,5.5,12.2,12.2,12.2c6.8,0,12.2-5.5,12.2-12.2   C393.4,30,388,24.5,381.2,24.5z M387.8,38.4h-3.4l1.7,2.9l-3.1,1.8l-1.7-2.9l-1.7,2.9l-3.1-1.8l1.7-2.9h-3.4v-3.6h3.4l-1.7-2.9   l3.1-1.8l1.7,2.9L383,30l3.1,1.8l-1.7,2.9h3.4V38.4z"
   id="path40"
   style="fill:#000000" />
</g>
</svg>